<?xml version="1.0" encoding="utf-8"?>
<!-- Generator: Adobe Illustrator 20.1.0, SVG Export Plug-In . SVG Version: 6.00 Build 0)  -->
<svg version="1.1" id="Capa_1" xmlns="http://www.w3.org/2000/svg" xmlns:xlink="http://www.w3.org/1999/xlink" x="0px" y="0px"
	 viewBox="0 0 373 373" style="enable-background:new 0 0 373 373;" xml:space="preserve">
<style type="text/css">
	.st0{fill:#DC361B;}
</style>
<path class="st0" d="M95,366H68c-6.6,0-12-5.4-12-12V15c0-6.6,5.4-12,12-12h27c6.6,0,12,5.4,12,12v339C107,360.6,101.6,366,95,366z"
	/>
<path class="st0" d="M196,366h-27c-6.6,0-12-5.4-12-12V15c0-6.6,5.4-12,12-12h27c6.6,0,12,5.4,12,12v339
	C208,360.6,202.6,366,196,366z"/>
</svg>
