<?xml version="1.0" encoding="utf-8"?>
<!-- Generator: Adobe Illustrator 20.1.0, SVG Export Plug-In . SVG Version: 6.00 Build 0)  -->
<svg version="1.1" id="Capa_1" xmlns="http://www.w3.org/2000/svg" xmlns:xlink="http://www.w3.org/1999/xlink" x="0px" y="0px"
	 viewBox="0 0 50 48" style="enable-background:new 0 0 50 48;" xml:space="preserve">
<style type="text/css">
	.st0{fill:#515151;}
	.st1{fill:#AEAEAD;}
	.st2{fill:#F7F7F8;}
</style>
<g>
	<path class="st0" d="M48.8,26.8c-0.1,0-0.3,0.1-0.3,0.3v1.6c0,2-1.6,3.6-3.6,3.6s-3.6-1.6-3.6-3.6V27c0-0.1-0.1-0.3-0.3-0.3
		s-0.3,0.1-0.3,0.3v1.6c0,2.2,1.7,4,3.9,4.1V34h-1.3c-0.1,0-0.3,0.1-0.3,0.3c0,0.1,0.1,0.3,0.3,0.3h3.1c0.1,0,0.3-0.1,0.3-0.3
		c0-0.1-0.1-0.3-0.3-0.3h-1.3v-1.3c2.2-0.1,3.9-1.9,3.9-4.1V27C49,26.9,48.9,26.8,48.8,26.8z"/>
	<path class="st0" d="M44.9,31.4c1.6,0,2.8-1.3,2.8-2.8v-6.2c0-1.6-1.3-2.8-2.8-2.8s-2.8,1.3-2.8,2.8v6.2
		C42.1,30.2,43.3,31.4,44.9,31.4z"/>
</g>
<path class="st1" d="M43.2,34.9c-0.4,0-0.7-0.3-0.7-0.7c0-0.4,0.3-0.7,0.7-0.7h1.2v-0.6c-2.2-0.1-4-2-4-4.3v0v-1.5V27
	c0,0,0-0.1,0-0.1c0.1-0.3,0.4-0.6,0.8-0.6c0.2,0,0.4,0.1,0.5,0.2v-4.4c0-1.6,1.3-3,3-3c0.5,0,0.9,0.1,1.3,0.3
	C43.8,9.1,34.6,1.3,23.6,1.3C10.9,1.3,0.7,11.6,0.7,24.3c0,12.7,10.3,22.9,22.9,22.9c8.8,0,16.5-5,20.3-12.3H43.2z"/>
<g>
	<path class="st2" d="M29.1,25.8L29.1,25.8c-0.3-0.1-0.5-0.2-0.7-0.3c-0.2-0.1-0.5-0.2-0.7-0.3c-0.2-0.1-0.4-0.1-0.6-0.2
		c-0.3-0.1-0.6-0.2-0.9-0.2c-0.1,0-0.2,0-0.3-0.1l-0.1,0c-0.2,0-0.4-0.1-0.5-0.1l-0.1,0c0,0,0,0,0,0l-0.1,0c-0.1,0-0.3,0-0.5-0.1
		l-0.5,0c-0.6,0-1.3,0-2,0l-0.2,0l-0.1,0l-0.2,0c-0.2,0-0.4,0-0.6,0.1l-0.1,0c-0.1,0-0.3,0-0.4,0.1c-0.1,0-0.3,0.1-0.4,0.1
		c-0.3,0.1-0.6,0.1-0.8,0.2c-0.2,0.1-0.4,0.1-0.6,0.2l-0.1,0.1c-0.4,0.2-0.9,0.3-1.3,0.5l-0.1,0.1l0,0c-4.8,2.3-7.9,7.2-7.9,12.5
		c0,0.1,0,0.2,0,0.4l0,0.8h27.7l0-0.8c0-0.1,0-0.2,0-0.4C37.2,33,34.1,28,29.1,25.8z M10.8,38.3c0.1-4.8,2.9-9.2,7.2-11.2l0.1-0.1
		l0,0c0.3-0.2,0.7-0.3,1-0.4l0.1,0c0.2-0.1,0.4-0.1,0.6-0.2c0.2-0.1,0.5-0.1,0.8-0.2c0.1,0,0.3-0.1,0.4-0.1c0.1,0,0.2,0,0.3-0.1
		l0.1,0c0.2,0,0.4-0.1,0.6-0.1l0.4,0c0.6,0,1.1,0,1.8,0l0.4,0c0.1,0,0.2,0,0.3,0l0.2,0c0.2,0,0.3,0.1,0.5,0.1l0.1,0
		c0.1,0,0.2,0,0.3,0.1c0.3,0.1,0.5,0.1,0.8,0.2c0.2,0.1,0.3,0.1,0.5,0.2c0.2,0.1,0.4,0.1,0.6,0.2c0.2,0.1,0.4,0.2,0.6,0.3l0,0
		c4.4,2,7.3,6.4,7.3,11.3L10.8,38.3L10.8,38.3z M20,22.8c0.1,0,0.2,0.1,0.3,0.1l0.2,0.1c0.1,0,0.2,0.1,0.3,0.1
		c0.8,0.3,1.7,0.4,2.5,0.4l0.1,0c0.3,0,0.6,0,0.9,0c0.1,0,0.2,0,0.3,0l0.2,0c0.1,0,0.2,0,0.4-0.1c0.1,0,0.2,0,0.3-0.1l0.2-0.1
		c0.1,0,0.2-0.1,0.3-0.1c0.1,0,0.1,0,0.2-0.1l0.2-0.1c0.1,0,0.3-0.1,0.4-0.2c0.1,0,0.1,0,0.2-0.1l0.1,0c0.2-0.1,0.4-0.2,0.5-0.3
		l0.1-0.1c0.2-0.1,0.4-0.2,0.6-0.4c0.1-0.1,0.2-0.2,0.3-0.2l0.3-0.3c2-1.7,3.2-4.1,3.2-6.6l0-0.1c0-4.8-3.9-8.7-8.7-8.7
		c-4.6,0-8.4,3.6-8.6,8.1l0,0.1c0,0.1,0,0.3,0,0.4C14.7,18.3,16.8,21.4,20,22.8z M16.1,14.5l0-0.1c0.2-3.8,3.4-6.9,7.3-6.9
		c4,0,7.3,3.3,7.3,7.3l0,0.1c0,2.2-1,4.2-2.7,5.6l-0.3,0.2c-0.1,0.1-0.1,0.1-0.2,0.2c-0.2,0.1-0.3,0.2-0.5,0.3l-0.1,0.1
		c-0.1,0.1-0.3,0.1-0.5,0.2l-0.2,0.1c-0.1,0-0.2,0.1-0.3,0.1l-0.2,0.1c0,0-0.1,0-0.1,0c-0.1,0-0.2,0-0.3,0.1L25,21.9
		c-0.1,0-0.1,0-0.2,0c-0.1,0-0.2,0-0.3,0l-0.3,0c-0.1,0-0.1,0-0.2,0c-0.2,0-0.5,0-0.7,0l-0.1,0h0c-0.7,0-1.5-0.1-2.2-0.3
		c-0.1,0-0.1,0-0.2-0.1l-0.3-0.1c-0.1,0-0.2-0.1-0.2-0.1c-2.7-1.1-4.5-3.8-4.5-6.7C16,14.7,16,14.6,16.1,14.5z"/>
</g>
</svg>
